G04 #@! TF.GenerationSoftware,KiCad,Pcbnew,(5.1.8)-1*
G04 #@! TF.CreationDate,2021-04-18T13:12:28+09:00*
G04 #@! TF.ProjectId,USB-Audio-StereoMic&MonauralSpeaker,5553422d-4175-4646-996f-2d5374657265,rev?*
G04 #@! TF.SameCoordinates,Original*
G04 #@! TF.FileFunction,Legend,Top*
G04 #@! TF.FilePolarity,Positive*
%FSLAX46Y46*%
G04 Gerber Fmt 4.6, Leading zero omitted, Abs format (unit mm)*
G04 Created by KiCad (PCBNEW (5.1.8)-1) date 2021-04-18 13:12:28*
%MOMM*%
%LPD*%
G01*
G04 APERTURE LIST*
%ADD10C,0.150000*%
%ADD11C,0.120000*%
%ADD12C,0.200000*%
%ADD13C,0.127000*%
%ADD14C,0.300000*%
%ADD15C,0.152400*%
G04 APERTURE END LIST*
D10*
X132480952Y-105353571D02*
X131719047Y-105353571D01*
X132100000Y-104972619D02*
X132100000Y-105734523D01*
X132480952Y-103703571D02*
X131719047Y-103703571D01*
X110638095Y-133652380D02*
X110638095Y-134461904D01*
X110685714Y-134557142D01*
X110733333Y-134604761D01*
X110828571Y-134652380D01*
X111019047Y-134652380D01*
X111114285Y-134604761D01*
X111161904Y-134557142D01*
X111209523Y-134461904D01*
X111209523Y-133652380D01*
X111638095Y-134604761D02*
X111780952Y-134652380D01*
X112019047Y-134652380D01*
X112114285Y-134604761D01*
X112161904Y-134557142D01*
X112209523Y-134461904D01*
X112209523Y-134366666D01*
X112161904Y-134271428D01*
X112114285Y-134223809D01*
X112019047Y-134176190D01*
X111828571Y-134128571D01*
X111733333Y-134080952D01*
X111685714Y-134033333D01*
X111638095Y-133938095D01*
X111638095Y-133842857D01*
X111685714Y-133747619D01*
X111733333Y-133700000D01*
X111828571Y-133652380D01*
X112066666Y-133652380D01*
X112209523Y-133700000D01*
X112971428Y-134128571D02*
X113114285Y-134176190D01*
X113161904Y-134223809D01*
X113209523Y-134319047D01*
X113209523Y-134461904D01*
X113161904Y-134557142D01*
X113114285Y-134604761D01*
X113019047Y-134652380D01*
X112638095Y-134652380D01*
X112638095Y-133652380D01*
X112971428Y-133652380D01*
X113066666Y-133700000D01*
X113114285Y-133747619D01*
X113161904Y-133842857D01*
X113161904Y-133938095D01*
X113114285Y-134033333D01*
X113066666Y-134080952D01*
X112971428Y-134128571D01*
X112638095Y-134128571D01*
X139552380Y-124842857D02*
X138552380Y-124842857D01*
X138885714Y-124366666D02*
X139552380Y-124366666D01*
X138980952Y-124366666D02*
X138933333Y-124319047D01*
X138885714Y-124223809D01*
X138885714Y-124080952D01*
X138933333Y-123985714D01*
X139028571Y-123938095D01*
X139552380Y-123938095D01*
X138885714Y-123461904D02*
X139885714Y-123461904D01*
X138933333Y-123461904D02*
X138885714Y-123366666D01*
X138885714Y-123176190D01*
X138933333Y-123080952D01*
X138980952Y-123033333D01*
X139076190Y-122985714D01*
X139361904Y-122985714D01*
X139457142Y-123033333D01*
X139504761Y-123080952D01*
X139552380Y-123176190D01*
X139552380Y-123366666D01*
X139504761Y-123461904D01*
X138885714Y-122128571D02*
X139552380Y-122128571D01*
X138885714Y-122557142D02*
X139409523Y-122557142D01*
X139504761Y-122509523D01*
X139552380Y-122414285D01*
X139552380Y-122271428D01*
X139504761Y-122176190D01*
X139457142Y-122128571D01*
X138885714Y-121795238D02*
X138885714Y-121414285D01*
X138552380Y-121652380D02*
X139409523Y-121652380D01*
X139504761Y-121604761D01*
X139552380Y-121509523D01*
X139552380Y-121414285D01*
X139552380Y-120509523D02*
X139076190Y-120842857D01*
X139552380Y-121080952D02*
X138552380Y-121080952D01*
X138552380Y-120700000D01*
X138600000Y-120604761D01*
X138647619Y-120557142D01*
X138742857Y-120509523D01*
X138885714Y-120509523D01*
X138980952Y-120557142D01*
X139028571Y-120604761D01*
X139076190Y-120700000D01*
X139076190Y-121080952D01*
X139652380Y-114547619D02*
X138652380Y-114547619D01*
X138985714Y-114071428D02*
X139652380Y-114071428D01*
X139080952Y-114071428D02*
X139033333Y-114023809D01*
X138985714Y-113928571D01*
X138985714Y-113785714D01*
X139033333Y-113690476D01*
X139128571Y-113642857D01*
X139652380Y-113642857D01*
X138985714Y-113166666D02*
X139985714Y-113166666D01*
X139033333Y-113166666D02*
X138985714Y-113071428D01*
X138985714Y-112880952D01*
X139033333Y-112785714D01*
X139080952Y-112738095D01*
X139176190Y-112690476D01*
X139461904Y-112690476D01*
X139557142Y-112738095D01*
X139604761Y-112785714D01*
X139652380Y-112880952D01*
X139652380Y-113071428D01*
X139604761Y-113166666D01*
X138985714Y-111833333D02*
X139652380Y-111833333D01*
X138985714Y-112261904D02*
X139509523Y-112261904D01*
X139604761Y-112214285D01*
X139652380Y-112119047D01*
X139652380Y-111976190D01*
X139604761Y-111880952D01*
X139557142Y-111833333D01*
X138985714Y-111500000D02*
X138985714Y-111119047D01*
X138652380Y-111357142D02*
X139509523Y-111357142D01*
X139604761Y-111309523D01*
X139652380Y-111214285D01*
X139652380Y-111119047D01*
X139652380Y-110309523D02*
X139652380Y-110785714D01*
X138652380Y-110785714D01*
X139861904Y-99595238D02*
X139719047Y-99547619D01*
X139480952Y-99547619D01*
X139385714Y-99595238D01*
X139338095Y-99642857D01*
X139290476Y-99738095D01*
X139290476Y-99833333D01*
X139338095Y-99928571D01*
X139385714Y-99976190D01*
X139480952Y-100023809D01*
X139671428Y-100071428D01*
X139766666Y-100119047D01*
X139814285Y-100166666D01*
X139861904Y-100261904D01*
X139861904Y-100357142D01*
X139814285Y-100452380D01*
X139766666Y-100500000D01*
X139671428Y-100547619D01*
X139433333Y-100547619D01*
X139290476Y-100500000D01*
X138861904Y-100214285D02*
X138861904Y-99214285D01*
X138861904Y-100166666D02*
X138766666Y-100214285D01*
X138576190Y-100214285D01*
X138480952Y-100166666D01*
X138433333Y-100119047D01*
X138385714Y-100023809D01*
X138385714Y-99738095D01*
X138433333Y-99642857D01*
X138480952Y-99595238D01*
X138576190Y-99547619D01*
X138766666Y-99547619D01*
X138861904Y-99595238D01*
X137576190Y-99595238D02*
X137671428Y-99547619D01*
X137861904Y-99547619D01*
X137957142Y-99595238D01*
X138004761Y-99690476D01*
X138004761Y-100071428D01*
X137957142Y-100166666D01*
X137861904Y-100214285D01*
X137671428Y-100214285D01*
X137576190Y-100166666D01*
X137528571Y-100071428D01*
X137528571Y-99976190D01*
X138004761Y-99880952D01*
X136671428Y-99547619D02*
X136671428Y-100071428D01*
X136719047Y-100166666D01*
X136814285Y-100214285D01*
X137004761Y-100214285D01*
X137100000Y-100166666D01*
X136671428Y-99595238D02*
X136766666Y-99547619D01*
X137004761Y-99547619D01*
X137100000Y-99595238D01*
X137147619Y-99690476D01*
X137147619Y-99785714D01*
X137100000Y-99880952D01*
X137004761Y-99928571D01*
X136766666Y-99928571D01*
X136671428Y-99976190D01*
X136195238Y-99547619D02*
X136195238Y-100547619D01*
X136100000Y-99928571D02*
X135814285Y-99547619D01*
X135814285Y-100214285D02*
X136195238Y-99833333D01*
X135004761Y-99595238D02*
X135100000Y-99547619D01*
X135290476Y-99547619D01*
X135385714Y-99595238D01*
X135433333Y-99690476D01*
X135433333Y-100071428D01*
X135385714Y-100166666D01*
X135290476Y-100214285D01*
X135100000Y-100214285D01*
X135004761Y-100166666D01*
X134957142Y-100071428D01*
X134957142Y-99976190D01*
X135433333Y-99880952D01*
X134528571Y-99547619D02*
X134528571Y-100214285D01*
X134528571Y-100023809D02*
X134480952Y-100119047D01*
X134433333Y-100166666D01*
X134338095Y-100214285D01*
X134242857Y-100214285D01*
X101347619Y-108676190D02*
X101347619Y-108866666D01*
X101300000Y-108961904D01*
X101204761Y-109057142D01*
X101014285Y-109104761D01*
X100680952Y-109104761D01*
X100490476Y-109057142D01*
X100395238Y-108961904D01*
X100347619Y-108866666D01*
X100347619Y-108676190D01*
X100395238Y-108580952D01*
X100490476Y-108485714D01*
X100680952Y-108438095D01*
X101014285Y-108438095D01*
X101204761Y-108485714D01*
X101300000Y-108580952D01*
X101347619Y-108676190D01*
X101014285Y-109961904D02*
X100347619Y-109961904D01*
X101014285Y-109533333D02*
X100490476Y-109533333D01*
X100395238Y-109580952D01*
X100347619Y-109676190D01*
X100347619Y-109819047D01*
X100395238Y-109914285D01*
X100442857Y-109961904D01*
X101014285Y-110295238D02*
X101014285Y-110676190D01*
X101347619Y-110438095D02*
X100490476Y-110438095D01*
X100395238Y-110485714D01*
X100347619Y-110580952D01*
X100347619Y-110676190D01*
X101014285Y-111009523D02*
X100014285Y-111009523D01*
X100966666Y-111009523D02*
X101014285Y-111104761D01*
X101014285Y-111295238D01*
X100966666Y-111390476D01*
X100919047Y-111438095D01*
X100823809Y-111485714D01*
X100538095Y-111485714D01*
X100442857Y-111438095D01*
X100395238Y-111390476D01*
X100347619Y-111295238D01*
X100347619Y-111104761D01*
X100395238Y-111009523D01*
X101014285Y-112342857D02*
X100347619Y-112342857D01*
X101014285Y-111914285D02*
X100490476Y-111914285D01*
X100395238Y-111961904D01*
X100347619Y-112057142D01*
X100347619Y-112200000D01*
X100395238Y-112295238D01*
X100442857Y-112342857D01*
X101014285Y-112676190D02*
X101014285Y-113057142D01*
X101347619Y-112819047D02*
X100490476Y-112819047D01*
X100395238Y-112866666D01*
X100347619Y-112961904D01*
X100347619Y-113057142D01*
D11*
G04 #@! TO.C,F1*
X118000000Y-127170000D02*
X116000000Y-127170000D01*
X116000000Y-125030000D02*
X118000000Y-125030000D01*
D12*
G04 #@! TO.C,U2*
X115200000Y-122300000D02*
G75*
G03*
X115200000Y-122300000I-100000J0D01*
G01*
D13*
X115250000Y-121550000D02*
X115350000Y-121550000D01*
X115250000Y-119850000D02*
X115350000Y-119850000D01*
X118350000Y-119850000D02*
X118250000Y-119850000D01*
X118350000Y-121550000D02*
X118250000Y-121550000D01*
X118350000Y-119850000D02*
X118350000Y-121550000D01*
X115250000Y-119850000D02*
X115250000Y-121550000D01*
D11*
G04 #@! TO.C,U1*
X109700000Y-113000000D02*
X109700000Y-114600000D01*
X111500000Y-114600000D02*
X111500000Y-112700000D01*
G04 #@! TO.C,J4*
X139910000Y-104650000D02*
X139910000Y-108460000D01*
X139910000Y-108460000D02*
X128190000Y-108460000D01*
X128190000Y-108460000D02*
X128190000Y-107040000D01*
X128190000Y-107040000D02*
X132690000Y-107040000D01*
X132690000Y-107040000D02*
X132690000Y-104650000D01*
X139910000Y-104650000D02*
X139910000Y-100840000D01*
X139910000Y-100840000D02*
X128190000Y-100840000D01*
X128190000Y-100840000D02*
X128190000Y-102260000D01*
X128190000Y-102260000D02*
X132690000Y-102260000D01*
X132690000Y-102260000D02*
X132690000Y-104650000D01*
X133800000Y-106150000D02*
X139300000Y-106150000D01*
X139300000Y-106150000D02*
X139300000Y-105650000D01*
X139300000Y-105650000D02*
X133800000Y-105650000D01*
X133800000Y-105650000D02*
X133800000Y-106150000D01*
X133800000Y-103650000D02*
X139300000Y-103650000D01*
X139300000Y-103650000D02*
X139300000Y-103150000D01*
X139300000Y-103150000D02*
X133800000Y-103150000D01*
X133800000Y-103150000D02*
X133800000Y-103650000D01*
X129100000Y-105900000D02*
X128500000Y-106200000D01*
X128500000Y-106200000D02*
X128500000Y-105600000D01*
X128500000Y-105600000D02*
X129100000Y-105900000D01*
G04 #@! TO.C,J1*
X114740000Y-128640000D02*
X114740000Y-127425000D01*
X114800000Y-132600000D02*
X114800000Y-134860000D01*
X115300000Y-132600000D02*
X115300000Y-134860000D01*
X121900000Y-131000000D02*
X122900000Y-131000000D01*
X121900000Y-132600000D02*
X121900000Y-131000000D01*
X122900000Y-132600000D02*
X121900000Y-132600000D01*
X122900000Y-131000000D02*
X122900000Y-132600000D01*
X115300000Y-131000000D02*
X114300000Y-131000000D01*
X115300000Y-132600000D02*
X115300000Y-131000000D01*
X114300000Y-132600000D02*
X115300000Y-132600000D01*
X114300000Y-131000000D02*
X114300000Y-132600000D01*
X123660000Y-128640000D02*
X122740000Y-128640000D01*
X113540000Y-128640000D02*
X114460000Y-128640000D01*
X121100000Y-130500000D02*
X121100000Y-134860000D01*
X116100000Y-130500000D02*
X121100000Y-130500000D01*
X116100000Y-134860000D02*
X116100000Y-130500000D01*
X122740000Y-128640000D02*
X122460000Y-128640000D01*
X122740000Y-127040000D02*
X122740000Y-128640000D01*
X123660000Y-127040000D02*
X122740000Y-127040000D01*
X123660000Y-134860000D02*
X123660000Y-127040000D01*
X113540000Y-134860000D02*
X123660000Y-134860000D01*
X113540000Y-127040000D02*
X113540000Y-134860000D01*
X114460000Y-127040000D02*
X113540000Y-127040000D01*
X114460000Y-128640000D02*
X114460000Y-127040000D01*
X114740000Y-128640000D02*
X114460000Y-128640000D01*
D13*
G04 #@! TO.C,J3*
X138200000Y-124600000D02*
X137890000Y-124600000D01*
X128180000Y-124600000D02*
X135080000Y-124600000D01*
X126200000Y-129600000D02*
X126200000Y-125200000D01*
X132380000Y-129600000D02*
X126200000Y-129600000D01*
X138200000Y-129600000D02*
X135210000Y-129600000D01*
X138200000Y-125100000D02*
X138200000Y-124600000D01*
X138200000Y-129100000D02*
X138200000Y-125100000D01*
X138200000Y-129600000D02*
X138200000Y-129100000D01*
X139700000Y-125100000D02*
X138200000Y-125100000D01*
X139700000Y-129100000D02*
X139700000Y-125100000D01*
X138200000Y-129100000D02*
X139700000Y-129100000D01*
D14*
G04 #@! TO.C,J5*
X104950000Y-111600000D02*
G75*
G03*
X104950000Y-111600000I-150000J0D01*
G01*
D13*
X102800000Y-102600000D02*
X102550000Y-102600000D01*
X102550000Y-102600000D02*
X102550000Y-103100000D01*
X102550000Y-103100000D02*
X102550000Y-108100000D01*
X102550000Y-108100000D02*
X102550000Y-108600000D01*
X102550000Y-108600000D02*
X103550000Y-108600000D01*
X102550000Y-103100000D02*
X100050000Y-103100000D01*
X100050000Y-103100000D02*
X100050000Y-108100000D01*
X100050000Y-108100000D02*
X102550000Y-108100000D01*
X106300000Y-108600000D02*
X112550000Y-108600000D01*
X108300000Y-102600000D02*
X117050000Y-102600000D01*
X117050000Y-102600000D02*
X117050000Y-103100000D01*
X117050000Y-106600000D02*
X117050000Y-108600000D01*
X117050000Y-108600000D02*
X116050000Y-108600000D01*
X105300000Y-102600000D02*
X105550000Y-102600000D01*
G04 #@! TO.C,J2*
X138200000Y-114300000D02*
X137890000Y-114300000D01*
X128180000Y-114300000D02*
X135080000Y-114300000D01*
X126200000Y-119300000D02*
X126200000Y-114900000D01*
X132380000Y-119300000D02*
X126200000Y-119300000D01*
X138200000Y-119300000D02*
X135210000Y-119300000D01*
X138200000Y-114800000D02*
X138200000Y-114300000D01*
X138200000Y-118800000D02*
X138200000Y-114800000D01*
X138200000Y-119300000D02*
X138200000Y-118800000D01*
X139700000Y-114800000D02*
X138200000Y-114800000D01*
X139700000Y-118800000D02*
X139700000Y-114800000D01*
X138200000Y-118800000D02*
X139700000Y-118800000D01*
D15*
G04 #@! TO.C,U3*
X101127900Y-117179000D02*
X101127900Y-123021000D01*
X101127900Y-123021000D02*
X101726760Y-123021000D01*
X111872100Y-123021000D02*
X111872100Y-117179000D01*
X111872100Y-117179000D02*
X111273240Y-117179000D01*
X101726762Y-117179000D02*
X101127900Y-117179000D01*
X111273240Y-123021000D02*
X111872100Y-123021000D01*
X105065502Y-115139901D02*
X104684502Y-115139901D01*
X104684502Y-115139901D02*
X104684502Y-115393901D01*
X104684502Y-115393901D02*
X105065502Y-115393901D01*
X105065502Y-115393901D02*
X105065502Y-115139901D01*
X105715501Y-125060099D02*
X105334501Y-125060099D01*
X105334501Y-125060099D02*
X105334501Y-124806099D01*
X105334501Y-124806099D02*
X105715501Y-124806099D01*
X105715501Y-124806099D02*
X105715501Y-125060099D01*
D11*
G04 #@! TO.C,C1*
X108200000Y-114250000D02*
X108200000Y-113550000D01*
X109400000Y-113550000D02*
X109400000Y-114250000D01*
G04 #@! TO.C,C2*
X105400000Y-113550000D02*
X105400000Y-114250000D01*
X104200000Y-114250000D02*
X104200000Y-113550000D01*
G04 #@! TO.C,C3*
X101600000Y-114350000D02*
X101600000Y-113650000D01*
X102800000Y-113650000D02*
X102800000Y-114350000D01*
G04 #@! TO.C,C4*
X117050000Y-124100000D02*
X116350000Y-124100000D01*
X116350000Y-122900000D02*
X117050000Y-122900000D01*
G04 #@! TO.C,C5*
X113600000Y-120850000D02*
X113600000Y-120150000D01*
X114800000Y-120150000D02*
X114800000Y-120850000D01*
G04 #@! TO.C,C6*
X107500000Y-126750000D02*
X107500000Y-126050000D01*
X108700000Y-126050000D02*
X108700000Y-126750000D01*
G04 #@! TO.C,C7*
X104100000Y-126050000D02*
X104100000Y-126750000D01*
X102900000Y-126750000D02*
X102900000Y-126050000D01*
G04 #@! TO.C,C8*
X101600000Y-126750000D02*
X101600000Y-126050000D01*
X102800000Y-126050000D02*
X102800000Y-126750000D01*
G04 #@! TO.C,C9*
X110700000Y-126050000D02*
X110700000Y-126750000D01*
X109500000Y-126750000D02*
X109500000Y-126050000D01*
G04 #@! TO.C,C10*
X110800000Y-98700000D02*
X111500000Y-98700000D01*
X111500000Y-99900000D02*
X110800000Y-99900000D01*
G04 #@! TO.C,C11*
X110800000Y-97200000D02*
X111500000Y-97200000D01*
X111500000Y-98400000D02*
X110800000Y-98400000D01*
G04 #@! TO.C,C12*
X123000000Y-110200000D02*
X123000000Y-110900000D01*
X121800000Y-110900000D02*
X121800000Y-110200000D01*
G04 #@! TO.C,C13*
X120300000Y-110900000D02*
X120300000Y-110200000D01*
X121500000Y-110200000D02*
X121500000Y-110900000D01*
G04 #@! TO.C,C14*
X124900000Y-104950000D02*
X124900000Y-104250000D01*
X126100000Y-104250000D02*
X126100000Y-104950000D01*
G04 #@! TO.C,C15*
X127600000Y-104250000D02*
X127600000Y-104950000D01*
X126400000Y-104950000D02*
X126400000Y-104250000D01*
G04 #@! TO.C,C16*
X124600000Y-116750000D02*
X124600000Y-116050000D01*
X125800000Y-116050000D02*
X125800000Y-116750000D01*
G04 #@! TO.C,C17*
X125800000Y-126350000D02*
X125800000Y-127050000D01*
X124600000Y-127050000D02*
X124600000Y-126350000D01*
G04 #@! TO.C,JP1*
X129000000Y-119800000D02*
X129000000Y-121800000D01*
X126200000Y-119800000D02*
X129000000Y-119800000D01*
X126200000Y-121800000D02*
X126200000Y-119800000D01*
X129000000Y-121800000D02*
X126200000Y-121800000D01*
G04 #@! TO.C,JP2*
X129000000Y-132200000D02*
X126200000Y-132200000D01*
X126200000Y-132200000D02*
X126200000Y-130200000D01*
X126200000Y-130200000D02*
X129000000Y-130200000D01*
X129000000Y-130200000D02*
X129000000Y-132200000D01*
G04 #@! TO.C,R1*
X112980000Y-127600000D02*
X112980000Y-128600000D01*
X111620000Y-128600000D02*
X111620000Y-127600000D01*
G04 #@! TO.C,R2*
X113020000Y-126100000D02*
X113020000Y-125100000D01*
X114380000Y-125100000D02*
X114380000Y-126100000D01*
G04 #@! TO.C,R3*
X111820000Y-116200000D02*
X111820000Y-115200000D01*
X113180000Y-115200000D02*
X113180000Y-116200000D01*
G04 #@! TO.C,R4*
X111620000Y-126100000D02*
X111620000Y-125100000D01*
X112980000Y-125100000D02*
X112980000Y-126100000D01*
G04 #@! TO.C,R5*
X106350000Y-126480000D02*
X105350000Y-126480000D01*
X105350000Y-125120000D02*
X106350000Y-125120000D01*
G04 #@! TO.C,R6*
X113400000Y-98620000D02*
X114400000Y-98620000D01*
X114400000Y-99980000D02*
X113400000Y-99980000D01*
G04 #@! TO.C,R7*
X114400000Y-98480000D02*
X113400000Y-98480000D01*
X113400000Y-97120000D02*
X114400000Y-97120000D01*
G04 #@! TO.C,R8*
X120220000Y-108300000D02*
X120220000Y-107300000D01*
X121580000Y-107300000D02*
X121580000Y-108300000D01*
G04 #@! TO.C,R9*
X121720000Y-108300000D02*
X121720000Y-107300000D01*
X123080000Y-107300000D02*
X123080000Y-108300000D01*
D15*
G04 #@! TO.C,U4*
X120798001Y-106301999D02*
X121645650Y-106301999D01*
X124201999Y-106301999D02*
X124201999Y-106082739D01*
X124201999Y-102898001D02*
X123354350Y-102898001D01*
X120798001Y-102898001D02*
X120798001Y-103117261D01*
X120798001Y-106082739D02*
X120798001Y-106301999D01*
X124201999Y-103117261D02*
X124201999Y-102898001D01*
X121645650Y-102898001D02*
X120798001Y-102898001D01*
X123354350Y-106301999D02*
X124201999Y-106301999D01*
D11*
G04 #@! TO.C,Y1*
X104200000Y-127000000D02*
X107400000Y-127000000D01*
X107400000Y-128400000D02*
X107400000Y-127000000D01*
X104200000Y-128400000D02*
X107400000Y-128400000D01*
X104200000Y-127000000D02*
X104200000Y-128400000D01*
G04 #@! TO.C,F1*
D10*
X119528571Y-126433333D02*
X119528571Y-126766666D01*
X120052380Y-126766666D02*
X119052380Y-126766666D01*
X119052380Y-126290476D01*
X120052380Y-125385714D02*
X120052380Y-125957142D01*
X120052380Y-125671428D02*
X119052380Y-125671428D01*
X119195238Y-125766666D01*
X119290476Y-125861904D01*
X119338095Y-125957142D01*
G04 #@! TO.C,U2*
X118860464Y-121311527D02*
X119510212Y-121311527D01*
X119586653Y-121273307D01*
X119624874Y-121235086D01*
X119663094Y-121158645D01*
X119663094Y-121005763D01*
X119624874Y-120929322D01*
X119586653Y-120891102D01*
X119510212Y-120852881D01*
X118860464Y-120852881D01*
X118936905Y-120508897D02*
X118898685Y-120470677D01*
X118860464Y-120394236D01*
X118860464Y-120203133D01*
X118898685Y-120126692D01*
X118936905Y-120088472D01*
X119013346Y-120050251D01*
X119089787Y-120050251D01*
X119204448Y-120088472D01*
X119663094Y-120547118D01*
X119663094Y-120050251D01*
G04 #@! TO.C,U1*
X111852380Y-114161904D02*
X112661904Y-114161904D01*
X112757142Y-114114285D01*
X112804761Y-114066666D01*
X112852380Y-113971428D01*
X112852380Y-113780952D01*
X112804761Y-113685714D01*
X112757142Y-113638095D01*
X112661904Y-113590476D01*
X111852380Y-113590476D01*
X112852380Y-112590476D02*
X112852380Y-113161904D01*
X112852380Y-112876190D02*
X111852380Y-112876190D01*
X111995238Y-112971428D01*
X112090476Y-113066666D01*
X112138095Y-113161904D01*
G04 #@! TO.C,J4*
X128666666Y-99552380D02*
X128666666Y-100266666D01*
X128619047Y-100409523D01*
X128523809Y-100504761D01*
X128380952Y-100552380D01*
X128285714Y-100552380D01*
X129571428Y-99885714D02*
X129571428Y-100552380D01*
X129333333Y-99504761D02*
X129095238Y-100219047D01*
X129714285Y-100219047D01*
G04 #@! TO.C,J1*
X112466666Y-131452380D02*
X112466666Y-132166666D01*
X112419047Y-132309523D01*
X112323809Y-132404761D01*
X112180952Y-132452380D01*
X112085714Y-132452380D01*
X113466666Y-132452380D02*
X112895238Y-132452380D01*
X113180952Y-132452380D02*
X113180952Y-131452380D01*
X113085714Y-131595238D01*
X112990476Y-131690476D01*
X112895238Y-131738095D01*
G04 #@! TO.C,J3*
X133766057Y-123251380D02*
X133766057Y-123966971D01*
X133718351Y-124110089D01*
X133622939Y-124205501D01*
X133479821Y-124253207D01*
X133384409Y-124253207D01*
X134147706Y-123251380D02*
X134767884Y-123251380D01*
X134433942Y-123633028D01*
X134577060Y-123633028D01*
X134672472Y-123680734D01*
X134720178Y-123728440D01*
X134767884Y-123823853D01*
X134767884Y-124062383D01*
X134720178Y-124157795D01*
X134672472Y-124205501D01*
X134577060Y-124253207D01*
X134290824Y-124253207D01*
X134195412Y-124205501D01*
X134147706Y-124157795D01*
G04 #@! TO.C,J5*
X100966393Y-101051932D02*
X100966393Y-101766803D01*
X100918735Y-101909777D01*
X100823419Y-102005093D01*
X100680445Y-102052751D01*
X100585129Y-102052751D01*
X101919554Y-101051932D02*
X101442974Y-101051932D01*
X101395316Y-101528512D01*
X101442974Y-101480854D01*
X101538290Y-101433196D01*
X101776580Y-101433196D01*
X101871896Y-101480854D01*
X101919554Y-101528512D01*
X101967212Y-101623829D01*
X101967212Y-101862119D01*
X101919554Y-101957435D01*
X101871896Y-102005093D01*
X101776580Y-102052751D01*
X101538290Y-102052751D01*
X101442974Y-102005093D01*
X101395316Y-101957435D01*
G04 #@! TO.C,J2*
X133766057Y-112951380D02*
X133766057Y-113666971D01*
X133718351Y-113810089D01*
X133622939Y-113905501D01*
X133479821Y-113953207D01*
X133384409Y-113953207D01*
X134195412Y-113046792D02*
X134243118Y-112999086D01*
X134338530Y-112951380D01*
X134577060Y-112951380D01*
X134672472Y-112999086D01*
X134720178Y-113046792D01*
X134767884Y-113142204D01*
X134767884Y-113237616D01*
X134720178Y-113380734D01*
X134147706Y-113953207D01*
X134767884Y-113953207D01*
G04 #@! TO.C,U3*
X112052380Y-122761904D02*
X112861904Y-122761904D01*
X112957142Y-122714285D01*
X113004761Y-122666666D01*
X113052380Y-122571428D01*
X113052380Y-122380952D01*
X113004761Y-122285714D01*
X112957142Y-122238095D01*
X112861904Y-122190476D01*
X112052380Y-122190476D01*
X112052380Y-121809523D02*
X112052380Y-121190476D01*
X112433333Y-121523809D01*
X112433333Y-121380952D01*
X112480952Y-121285714D01*
X112528571Y-121238095D01*
X112623809Y-121190476D01*
X112861904Y-121190476D01*
X112957142Y-121238095D01*
X113004761Y-121285714D01*
X113052380Y-121380952D01*
X113052380Y-121666666D01*
X113004761Y-121761904D01*
X112957142Y-121809523D01*
X110851380Y-116613800D02*
X111089476Y-116613800D01*
X110994238Y-116851895D02*
X111089476Y-116613800D01*
X110994238Y-116375704D01*
X111279952Y-116756657D02*
X111089476Y-116613800D01*
X111279952Y-116470942D01*
X110851380Y-116613800D02*
X111089476Y-116613800D01*
X110994238Y-116851895D02*
X111089476Y-116613800D01*
X110994238Y-116375704D01*
X111279952Y-116756657D02*
X111089476Y-116613800D01*
X111279952Y-116470942D01*
G04 #@! TO.C,C1*
X107857142Y-114066666D02*
X107904761Y-114114285D01*
X107952380Y-114257142D01*
X107952380Y-114352380D01*
X107904761Y-114495238D01*
X107809523Y-114590476D01*
X107714285Y-114638095D01*
X107523809Y-114685714D01*
X107380952Y-114685714D01*
X107190476Y-114638095D01*
X107095238Y-114590476D01*
X107000000Y-114495238D01*
X106952380Y-114352380D01*
X106952380Y-114257142D01*
X107000000Y-114114285D01*
X107047619Y-114066666D01*
X107952380Y-113114285D02*
X107952380Y-113685714D01*
X107952380Y-113400000D02*
X106952380Y-113400000D01*
X107095238Y-113495238D01*
X107190476Y-113590476D01*
X107238095Y-113685714D01*
G04 #@! TO.C,C2*
X106357142Y-114066666D02*
X106404761Y-114114285D01*
X106452380Y-114257142D01*
X106452380Y-114352380D01*
X106404761Y-114495238D01*
X106309523Y-114590476D01*
X106214285Y-114638095D01*
X106023809Y-114685714D01*
X105880952Y-114685714D01*
X105690476Y-114638095D01*
X105595238Y-114590476D01*
X105500000Y-114495238D01*
X105452380Y-114352380D01*
X105452380Y-114257142D01*
X105500000Y-114114285D01*
X105547619Y-114066666D01*
X105547619Y-113685714D02*
X105500000Y-113638095D01*
X105452380Y-113542857D01*
X105452380Y-113304761D01*
X105500000Y-113209523D01*
X105547619Y-113161904D01*
X105642857Y-113114285D01*
X105738095Y-113114285D01*
X105880952Y-113161904D01*
X106452380Y-113733333D01*
X106452380Y-113114285D01*
G04 #@! TO.C,C3*
X103757142Y-114166666D02*
X103804761Y-114214285D01*
X103852380Y-114357142D01*
X103852380Y-114452380D01*
X103804761Y-114595238D01*
X103709523Y-114690476D01*
X103614285Y-114738095D01*
X103423809Y-114785714D01*
X103280952Y-114785714D01*
X103090476Y-114738095D01*
X102995238Y-114690476D01*
X102900000Y-114595238D01*
X102852380Y-114452380D01*
X102852380Y-114357142D01*
X102900000Y-114214285D01*
X102947619Y-114166666D01*
X102852380Y-113833333D02*
X102852380Y-113214285D01*
X103233333Y-113547619D01*
X103233333Y-113404761D01*
X103280952Y-113309523D01*
X103328571Y-113261904D01*
X103423809Y-113214285D01*
X103661904Y-113214285D01*
X103757142Y-113261904D01*
X103804761Y-113309523D01*
X103852380Y-113404761D01*
X103852380Y-113690476D01*
X103804761Y-113785714D01*
X103757142Y-113833333D01*
G04 #@! TO.C,C4*
X118633333Y-123857142D02*
X118585714Y-123904761D01*
X118442857Y-123952380D01*
X118347619Y-123952380D01*
X118204761Y-123904761D01*
X118109523Y-123809523D01*
X118061904Y-123714285D01*
X118014285Y-123523809D01*
X118014285Y-123380952D01*
X118061904Y-123190476D01*
X118109523Y-123095238D01*
X118204761Y-123000000D01*
X118347619Y-122952380D01*
X118442857Y-122952380D01*
X118585714Y-123000000D01*
X118633333Y-123047619D01*
X119490476Y-123285714D02*
X119490476Y-123952380D01*
X119252380Y-122904761D02*
X119014285Y-123619047D01*
X119633333Y-123619047D01*
G04 #@! TO.C,C5*
X114557142Y-118466666D02*
X114604761Y-118514285D01*
X114652380Y-118657142D01*
X114652380Y-118752380D01*
X114604761Y-118895238D01*
X114509523Y-118990476D01*
X114414285Y-119038095D01*
X114223809Y-119085714D01*
X114080952Y-119085714D01*
X113890476Y-119038095D01*
X113795238Y-118990476D01*
X113700000Y-118895238D01*
X113652380Y-118752380D01*
X113652380Y-118657142D01*
X113700000Y-118514285D01*
X113747619Y-118466666D01*
X113652380Y-117561904D02*
X113652380Y-118038095D01*
X114128571Y-118085714D01*
X114080952Y-118038095D01*
X114033333Y-117942857D01*
X114033333Y-117704761D01*
X114080952Y-117609523D01*
X114128571Y-117561904D01*
X114223809Y-117514285D01*
X114461904Y-117514285D01*
X114557142Y-117561904D01*
X114604761Y-117609523D01*
X114652380Y-117704761D01*
X114652380Y-117942857D01*
X114604761Y-118038095D01*
X114557142Y-118085714D01*
G04 #@! TO.C,C6*
X108557142Y-129166666D02*
X108604761Y-129214285D01*
X108652380Y-129357142D01*
X108652380Y-129452380D01*
X108604761Y-129595238D01*
X108509523Y-129690476D01*
X108414285Y-129738095D01*
X108223809Y-129785714D01*
X108080952Y-129785714D01*
X107890476Y-129738095D01*
X107795238Y-129690476D01*
X107700000Y-129595238D01*
X107652380Y-129452380D01*
X107652380Y-129357142D01*
X107700000Y-129214285D01*
X107747619Y-129166666D01*
X107652380Y-128309523D02*
X107652380Y-128500000D01*
X107700000Y-128595238D01*
X107747619Y-128642857D01*
X107890476Y-128738095D01*
X108080952Y-128785714D01*
X108461904Y-128785714D01*
X108557142Y-128738095D01*
X108604761Y-128690476D01*
X108652380Y-128595238D01*
X108652380Y-128404761D01*
X108604761Y-128309523D01*
X108557142Y-128261904D01*
X108461904Y-128214285D01*
X108223809Y-128214285D01*
X108128571Y-128261904D01*
X108080952Y-128309523D01*
X108033333Y-128404761D01*
X108033333Y-128595238D01*
X108080952Y-128690476D01*
X108128571Y-128738095D01*
X108223809Y-128785714D01*
G04 #@! TO.C,C7*
X103557142Y-128866666D02*
X103604761Y-128914285D01*
X103652380Y-129057142D01*
X103652380Y-129152380D01*
X103604761Y-129295238D01*
X103509523Y-129390476D01*
X103414285Y-129438095D01*
X103223809Y-129485714D01*
X103080952Y-129485714D01*
X102890476Y-129438095D01*
X102795238Y-129390476D01*
X102700000Y-129295238D01*
X102652380Y-129152380D01*
X102652380Y-129057142D01*
X102700000Y-128914285D01*
X102747619Y-128866666D01*
X102652380Y-128533333D02*
X102652380Y-127866666D01*
X103652380Y-128295238D01*
G04 #@! TO.C,C8*
X102357142Y-128866666D02*
X102404761Y-128914285D01*
X102452380Y-129057142D01*
X102452380Y-129152380D01*
X102404761Y-129295238D01*
X102309523Y-129390476D01*
X102214285Y-129438095D01*
X102023809Y-129485714D01*
X101880952Y-129485714D01*
X101690476Y-129438095D01*
X101595238Y-129390476D01*
X101500000Y-129295238D01*
X101452380Y-129152380D01*
X101452380Y-129057142D01*
X101500000Y-128914285D01*
X101547619Y-128866666D01*
X101880952Y-128295238D02*
X101833333Y-128390476D01*
X101785714Y-128438095D01*
X101690476Y-128485714D01*
X101642857Y-128485714D01*
X101547619Y-128438095D01*
X101500000Y-128390476D01*
X101452380Y-128295238D01*
X101452380Y-128104761D01*
X101500000Y-128009523D01*
X101547619Y-127961904D01*
X101642857Y-127914285D01*
X101690476Y-127914285D01*
X101785714Y-127961904D01*
X101833333Y-128009523D01*
X101880952Y-128104761D01*
X101880952Y-128295238D01*
X101928571Y-128390476D01*
X101976190Y-128438095D01*
X102071428Y-128485714D01*
X102261904Y-128485714D01*
X102357142Y-128438095D01*
X102404761Y-128390476D01*
X102452380Y-128295238D01*
X102452380Y-128104761D01*
X102404761Y-128009523D01*
X102357142Y-127961904D01*
X102261904Y-127914285D01*
X102071428Y-127914285D01*
X101976190Y-127961904D01*
X101928571Y-128009523D01*
X101880952Y-128104761D01*
G04 #@! TO.C,C9*
X110457142Y-128866666D02*
X110504761Y-128914285D01*
X110552380Y-129057142D01*
X110552380Y-129152380D01*
X110504761Y-129295238D01*
X110409523Y-129390476D01*
X110314285Y-129438095D01*
X110123809Y-129485714D01*
X109980952Y-129485714D01*
X109790476Y-129438095D01*
X109695238Y-129390476D01*
X109600000Y-129295238D01*
X109552380Y-129152380D01*
X109552380Y-129057142D01*
X109600000Y-128914285D01*
X109647619Y-128866666D01*
X110552380Y-128390476D02*
X110552380Y-128200000D01*
X110504761Y-128104761D01*
X110457142Y-128057142D01*
X110314285Y-127961904D01*
X110123809Y-127914285D01*
X109742857Y-127914285D01*
X109647619Y-127961904D01*
X109600000Y-128009523D01*
X109552380Y-128104761D01*
X109552380Y-128295238D01*
X109600000Y-128390476D01*
X109647619Y-128438095D01*
X109742857Y-128485714D01*
X109980952Y-128485714D01*
X110076190Y-128438095D01*
X110123809Y-128390476D01*
X110171428Y-128295238D01*
X110171428Y-128104761D01*
X110123809Y-128009523D01*
X110076190Y-127961904D01*
X109980952Y-127914285D01*
G04 #@! TO.C,C10*
X110507142Y-101157142D02*
X110459523Y-101204761D01*
X110316666Y-101252380D01*
X110221428Y-101252380D01*
X110078571Y-101204761D01*
X109983333Y-101109523D01*
X109935714Y-101014285D01*
X109888095Y-100823809D01*
X109888095Y-100680952D01*
X109935714Y-100490476D01*
X109983333Y-100395238D01*
X110078571Y-100300000D01*
X110221428Y-100252380D01*
X110316666Y-100252380D01*
X110459523Y-100300000D01*
X110507142Y-100347619D01*
X111459523Y-101252380D02*
X110888095Y-101252380D01*
X111173809Y-101252380D02*
X111173809Y-100252380D01*
X111078571Y-100395238D01*
X110983333Y-100490476D01*
X110888095Y-100538095D01*
X112078571Y-100252380D02*
X112173809Y-100252380D01*
X112269047Y-100300000D01*
X112316666Y-100347619D01*
X112364285Y-100442857D01*
X112411904Y-100633333D01*
X112411904Y-100871428D01*
X112364285Y-101061904D01*
X112316666Y-101157142D01*
X112269047Y-101204761D01*
X112173809Y-101252380D01*
X112078571Y-101252380D01*
X111983333Y-101204761D01*
X111935714Y-101157142D01*
X111888095Y-101061904D01*
X111840476Y-100871428D01*
X111840476Y-100633333D01*
X111888095Y-100442857D01*
X111935714Y-100347619D01*
X111983333Y-100300000D01*
X112078571Y-100252380D01*
G04 #@! TO.C,C11*
X110457142Y-96857142D02*
X110409523Y-96904761D01*
X110266666Y-96952380D01*
X110171428Y-96952380D01*
X110028571Y-96904761D01*
X109933333Y-96809523D01*
X109885714Y-96714285D01*
X109838095Y-96523809D01*
X109838095Y-96380952D01*
X109885714Y-96190476D01*
X109933333Y-96095238D01*
X110028571Y-96000000D01*
X110171428Y-95952380D01*
X110266666Y-95952380D01*
X110409523Y-96000000D01*
X110457142Y-96047619D01*
X111409523Y-96952380D02*
X110838095Y-96952380D01*
X111123809Y-96952380D02*
X111123809Y-95952380D01*
X111028571Y-96095238D01*
X110933333Y-96190476D01*
X110838095Y-96238095D01*
X112361904Y-96952380D02*
X111790476Y-96952380D01*
X112076190Y-96952380D02*
X112076190Y-95952380D01*
X111980952Y-96095238D01*
X111885714Y-96190476D01*
X111790476Y-96238095D01*
G04 #@! TO.C,C12*
X124257142Y-111192857D02*
X124304761Y-111240476D01*
X124352380Y-111383333D01*
X124352380Y-111478571D01*
X124304761Y-111621428D01*
X124209523Y-111716666D01*
X124114285Y-111764285D01*
X123923809Y-111811904D01*
X123780952Y-111811904D01*
X123590476Y-111764285D01*
X123495238Y-111716666D01*
X123400000Y-111621428D01*
X123352380Y-111478571D01*
X123352380Y-111383333D01*
X123400000Y-111240476D01*
X123447619Y-111192857D01*
X124352380Y-110240476D02*
X124352380Y-110811904D01*
X124352380Y-110526190D02*
X123352380Y-110526190D01*
X123495238Y-110621428D01*
X123590476Y-110716666D01*
X123638095Y-110811904D01*
X123447619Y-109859523D02*
X123400000Y-109811904D01*
X123352380Y-109716666D01*
X123352380Y-109478571D01*
X123400000Y-109383333D01*
X123447619Y-109335714D01*
X123542857Y-109288095D01*
X123638095Y-109288095D01*
X123780952Y-109335714D01*
X124352380Y-109907142D01*
X124352380Y-109288095D01*
G04 #@! TO.C,C13*
X119957142Y-111192857D02*
X120004761Y-111240476D01*
X120052380Y-111383333D01*
X120052380Y-111478571D01*
X120004761Y-111621428D01*
X119909523Y-111716666D01*
X119814285Y-111764285D01*
X119623809Y-111811904D01*
X119480952Y-111811904D01*
X119290476Y-111764285D01*
X119195238Y-111716666D01*
X119100000Y-111621428D01*
X119052380Y-111478571D01*
X119052380Y-111383333D01*
X119100000Y-111240476D01*
X119147619Y-111192857D01*
X120052380Y-110240476D02*
X120052380Y-110811904D01*
X120052380Y-110526190D02*
X119052380Y-110526190D01*
X119195238Y-110621428D01*
X119290476Y-110716666D01*
X119338095Y-110811904D01*
X119052380Y-109907142D02*
X119052380Y-109288095D01*
X119433333Y-109621428D01*
X119433333Y-109478571D01*
X119480952Y-109383333D01*
X119528571Y-109335714D01*
X119623809Y-109288095D01*
X119861904Y-109288095D01*
X119957142Y-109335714D01*
X120004761Y-109383333D01*
X120052380Y-109478571D01*
X120052380Y-109764285D01*
X120004761Y-109859523D01*
X119957142Y-109907142D01*
G04 #@! TO.C,C14*
X125857142Y-108242857D02*
X125904761Y-108290476D01*
X125952380Y-108433333D01*
X125952380Y-108528571D01*
X125904761Y-108671428D01*
X125809523Y-108766666D01*
X125714285Y-108814285D01*
X125523809Y-108861904D01*
X125380952Y-108861904D01*
X125190476Y-108814285D01*
X125095238Y-108766666D01*
X125000000Y-108671428D01*
X124952380Y-108528571D01*
X124952380Y-108433333D01*
X125000000Y-108290476D01*
X125047619Y-108242857D01*
X125952380Y-107290476D02*
X125952380Y-107861904D01*
X125952380Y-107576190D02*
X124952380Y-107576190D01*
X125095238Y-107671428D01*
X125190476Y-107766666D01*
X125238095Y-107861904D01*
X125285714Y-106433333D02*
X125952380Y-106433333D01*
X124904761Y-106671428D02*
X125619047Y-106909523D01*
X125619047Y-106290476D01*
G04 #@! TO.C,C15*
X125857142Y-102742857D02*
X125904761Y-102790476D01*
X125952380Y-102933333D01*
X125952380Y-103028571D01*
X125904761Y-103171428D01*
X125809523Y-103266666D01*
X125714285Y-103314285D01*
X125523809Y-103361904D01*
X125380952Y-103361904D01*
X125190476Y-103314285D01*
X125095238Y-103266666D01*
X125000000Y-103171428D01*
X124952380Y-103028571D01*
X124952380Y-102933333D01*
X125000000Y-102790476D01*
X125047619Y-102742857D01*
X125952380Y-101790476D02*
X125952380Y-102361904D01*
X125952380Y-102076190D02*
X124952380Y-102076190D01*
X125095238Y-102171428D01*
X125190476Y-102266666D01*
X125238095Y-102361904D01*
X124952380Y-100885714D02*
X124952380Y-101361904D01*
X125428571Y-101409523D01*
X125380952Y-101361904D01*
X125333333Y-101266666D01*
X125333333Y-101028571D01*
X125380952Y-100933333D01*
X125428571Y-100885714D01*
X125523809Y-100838095D01*
X125761904Y-100838095D01*
X125857142Y-100885714D01*
X125904761Y-100933333D01*
X125952380Y-101028571D01*
X125952380Y-101266666D01*
X125904761Y-101361904D01*
X125857142Y-101409523D01*
G04 #@! TO.C,C16*
X125357142Y-119942857D02*
X125404761Y-119990476D01*
X125452380Y-120133333D01*
X125452380Y-120228571D01*
X125404761Y-120371428D01*
X125309523Y-120466666D01*
X125214285Y-120514285D01*
X125023809Y-120561904D01*
X124880952Y-120561904D01*
X124690476Y-120514285D01*
X124595238Y-120466666D01*
X124500000Y-120371428D01*
X124452380Y-120228571D01*
X124452380Y-120133333D01*
X124500000Y-119990476D01*
X124547619Y-119942857D01*
X125452380Y-118990476D02*
X125452380Y-119561904D01*
X125452380Y-119276190D02*
X124452380Y-119276190D01*
X124595238Y-119371428D01*
X124690476Y-119466666D01*
X124738095Y-119561904D01*
X124452380Y-118133333D02*
X124452380Y-118323809D01*
X124500000Y-118419047D01*
X124547619Y-118466666D01*
X124690476Y-118561904D01*
X124880952Y-118609523D01*
X125261904Y-118609523D01*
X125357142Y-118561904D01*
X125404761Y-118514285D01*
X125452380Y-118419047D01*
X125452380Y-118228571D01*
X125404761Y-118133333D01*
X125357142Y-118085714D01*
X125261904Y-118038095D01*
X125023809Y-118038095D01*
X124928571Y-118085714D01*
X124880952Y-118133333D01*
X124833333Y-118228571D01*
X124833333Y-118419047D01*
X124880952Y-118514285D01*
X124928571Y-118561904D01*
X125023809Y-118609523D01*
G04 #@! TO.C,C17*
X125557142Y-130242857D02*
X125604761Y-130290476D01*
X125652380Y-130433333D01*
X125652380Y-130528571D01*
X125604761Y-130671428D01*
X125509523Y-130766666D01*
X125414285Y-130814285D01*
X125223809Y-130861904D01*
X125080952Y-130861904D01*
X124890476Y-130814285D01*
X124795238Y-130766666D01*
X124700000Y-130671428D01*
X124652380Y-130528571D01*
X124652380Y-130433333D01*
X124700000Y-130290476D01*
X124747619Y-130242857D01*
X125652380Y-129290476D02*
X125652380Y-129861904D01*
X125652380Y-129576190D02*
X124652380Y-129576190D01*
X124795238Y-129671428D01*
X124890476Y-129766666D01*
X124938095Y-129861904D01*
X124652380Y-128957142D02*
X124652380Y-128290476D01*
X125652380Y-128719047D01*
G04 #@! TO.C,JP1*
X129566666Y-120352380D02*
X129566666Y-121066666D01*
X129519047Y-121209523D01*
X129423809Y-121304761D01*
X129280952Y-121352380D01*
X129185714Y-121352380D01*
X130042857Y-121352380D02*
X130042857Y-120352380D01*
X130423809Y-120352380D01*
X130519047Y-120400000D01*
X130566666Y-120447619D01*
X130614285Y-120542857D01*
X130614285Y-120685714D01*
X130566666Y-120780952D01*
X130519047Y-120828571D01*
X130423809Y-120876190D01*
X130042857Y-120876190D01*
X131566666Y-121352380D02*
X130995238Y-121352380D01*
X131280952Y-121352380D02*
X131280952Y-120352380D01*
X131185714Y-120495238D01*
X131090476Y-120590476D01*
X130995238Y-120638095D01*
G04 #@! TO.C,JP2*
X129566666Y-130752380D02*
X129566666Y-131466666D01*
X129519047Y-131609523D01*
X129423809Y-131704761D01*
X129280952Y-131752380D01*
X129185714Y-131752380D01*
X130042857Y-131752380D02*
X130042857Y-130752380D01*
X130423809Y-130752380D01*
X130519047Y-130800000D01*
X130566666Y-130847619D01*
X130614285Y-130942857D01*
X130614285Y-131085714D01*
X130566666Y-131180952D01*
X130519047Y-131228571D01*
X130423809Y-131276190D01*
X130042857Y-131276190D01*
X130995238Y-130847619D02*
X131042857Y-130800000D01*
X131138095Y-130752380D01*
X131376190Y-130752380D01*
X131471428Y-130800000D01*
X131519047Y-130847619D01*
X131566666Y-130942857D01*
X131566666Y-131038095D01*
X131519047Y-131180952D01*
X130947619Y-131752380D01*
X131566666Y-131752380D01*
G04 #@! TO.C,R1*
X112852380Y-129966666D02*
X112376190Y-130300000D01*
X112852380Y-130538095D02*
X111852380Y-130538095D01*
X111852380Y-130157142D01*
X111900000Y-130061904D01*
X111947619Y-130014285D01*
X112042857Y-129966666D01*
X112185714Y-129966666D01*
X112280952Y-130014285D01*
X112328571Y-130061904D01*
X112376190Y-130157142D01*
X112376190Y-130538095D01*
X112852380Y-129014285D02*
X112852380Y-129585714D01*
X112852380Y-129300000D02*
X111852380Y-129300000D01*
X111995238Y-129395238D01*
X112090476Y-129490476D01*
X112138095Y-129585714D01*
G04 #@! TO.C,R2*
X114152380Y-123966666D02*
X113676190Y-124300000D01*
X114152380Y-124538095D02*
X113152380Y-124538095D01*
X113152380Y-124157142D01*
X113200000Y-124061904D01*
X113247619Y-124014285D01*
X113342857Y-123966666D01*
X113485714Y-123966666D01*
X113580952Y-124014285D01*
X113628571Y-124061904D01*
X113676190Y-124157142D01*
X113676190Y-124538095D01*
X113247619Y-123585714D02*
X113200000Y-123538095D01*
X113152380Y-123442857D01*
X113152380Y-123204761D01*
X113200000Y-123109523D01*
X113247619Y-123061904D01*
X113342857Y-123014285D01*
X113438095Y-123014285D01*
X113580952Y-123061904D01*
X114152380Y-123633333D01*
X114152380Y-123014285D01*
G04 #@! TO.C,R3*
X113152380Y-117966666D02*
X112676190Y-118300000D01*
X113152380Y-118538095D02*
X112152380Y-118538095D01*
X112152380Y-118157142D01*
X112200000Y-118061904D01*
X112247619Y-118014285D01*
X112342857Y-117966666D01*
X112485714Y-117966666D01*
X112580952Y-118014285D01*
X112628571Y-118061904D01*
X112676190Y-118157142D01*
X112676190Y-118538095D01*
X112152380Y-117633333D02*
X112152380Y-117014285D01*
X112533333Y-117347619D01*
X112533333Y-117204761D01*
X112580952Y-117109523D01*
X112628571Y-117061904D01*
X112723809Y-117014285D01*
X112961904Y-117014285D01*
X113057142Y-117061904D01*
X113104761Y-117109523D01*
X113152380Y-117204761D01*
X113152380Y-117490476D01*
X113104761Y-117585714D01*
X113057142Y-117633333D01*
G04 #@! TO.C,R4*
X112752380Y-123966666D02*
X112276190Y-124300000D01*
X112752380Y-124538095D02*
X111752380Y-124538095D01*
X111752380Y-124157142D01*
X111800000Y-124061904D01*
X111847619Y-124014285D01*
X111942857Y-123966666D01*
X112085714Y-123966666D01*
X112180952Y-124014285D01*
X112228571Y-124061904D01*
X112276190Y-124157142D01*
X112276190Y-124538095D01*
X112085714Y-123109523D02*
X112752380Y-123109523D01*
X111704761Y-123347619D02*
X112419047Y-123585714D01*
X112419047Y-122966666D01*
G04 #@! TO.C,R5*
X104533333Y-129852380D02*
X104200000Y-129376190D01*
X103961904Y-129852380D02*
X103961904Y-128852380D01*
X104342857Y-128852380D01*
X104438095Y-128900000D01*
X104485714Y-128947619D01*
X104533333Y-129042857D01*
X104533333Y-129185714D01*
X104485714Y-129280952D01*
X104438095Y-129328571D01*
X104342857Y-129376190D01*
X103961904Y-129376190D01*
X105438095Y-128852380D02*
X104961904Y-128852380D01*
X104914285Y-129328571D01*
X104961904Y-129280952D01*
X105057142Y-129233333D01*
X105295238Y-129233333D01*
X105390476Y-129280952D01*
X105438095Y-129328571D01*
X105485714Y-129423809D01*
X105485714Y-129661904D01*
X105438095Y-129757142D01*
X105390476Y-129804761D01*
X105295238Y-129852380D01*
X105057142Y-129852380D01*
X104961904Y-129804761D01*
X104914285Y-129757142D01*
G04 #@! TO.C,R6*
X113733333Y-101152380D02*
X113400000Y-100676190D01*
X113161904Y-101152380D02*
X113161904Y-100152380D01*
X113542857Y-100152380D01*
X113638095Y-100200000D01*
X113685714Y-100247619D01*
X113733333Y-100342857D01*
X113733333Y-100485714D01*
X113685714Y-100580952D01*
X113638095Y-100628571D01*
X113542857Y-100676190D01*
X113161904Y-100676190D01*
X114590476Y-100152380D02*
X114400000Y-100152380D01*
X114304761Y-100200000D01*
X114257142Y-100247619D01*
X114161904Y-100390476D01*
X114114285Y-100580952D01*
X114114285Y-100961904D01*
X114161904Y-101057142D01*
X114209523Y-101104761D01*
X114304761Y-101152380D01*
X114495238Y-101152380D01*
X114590476Y-101104761D01*
X114638095Y-101057142D01*
X114685714Y-100961904D01*
X114685714Y-100723809D01*
X114638095Y-100628571D01*
X114590476Y-100580952D01*
X114495238Y-100533333D01*
X114304761Y-100533333D01*
X114209523Y-100580952D01*
X114161904Y-100628571D01*
X114114285Y-100723809D01*
G04 #@! TO.C,R7*
X113733333Y-96952380D02*
X113400000Y-96476190D01*
X113161904Y-96952380D02*
X113161904Y-95952380D01*
X113542857Y-95952380D01*
X113638095Y-96000000D01*
X113685714Y-96047619D01*
X113733333Y-96142857D01*
X113733333Y-96285714D01*
X113685714Y-96380952D01*
X113638095Y-96428571D01*
X113542857Y-96476190D01*
X113161904Y-96476190D01*
X114066666Y-95952380D02*
X114733333Y-95952380D01*
X114304761Y-96952380D01*
G04 #@! TO.C,R8*
X120052380Y-107966666D02*
X119576190Y-108300000D01*
X120052380Y-108538095D02*
X119052380Y-108538095D01*
X119052380Y-108157142D01*
X119100000Y-108061904D01*
X119147619Y-108014285D01*
X119242857Y-107966666D01*
X119385714Y-107966666D01*
X119480952Y-108014285D01*
X119528571Y-108061904D01*
X119576190Y-108157142D01*
X119576190Y-108538095D01*
X119480952Y-107395238D02*
X119433333Y-107490476D01*
X119385714Y-107538095D01*
X119290476Y-107585714D01*
X119242857Y-107585714D01*
X119147619Y-107538095D01*
X119100000Y-107490476D01*
X119052380Y-107395238D01*
X119052380Y-107204761D01*
X119100000Y-107109523D01*
X119147619Y-107061904D01*
X119242857Y-107014285D01*
X119290476Y-107014285D01*
X119385714Y-107061904D01*
X119433333Y-107109523D01*
X119480952Y-107204761D01*
X119480952Y-107395238D01*
X119528571Y-107490476D01*
X119576190Y-107538095D01*
X119671428Y-107585714D01*
X119861904Y-107585714D01*
X119957142Y-107538095D01*
X120004761Y-107490476D01*
X120052380Y-107395238D01*
X120052380Y-107204761D01*
X120004761Y-107109523D01*
X119957142Y-107061904D01*
X119861904Y-107014285D01*
X119671428Y-107014285D01*
X119576190Y-107061904D01*
X119528571Y-107109523D01*
X119480952Y-107204761D01*
G04 #@! TO.C,R9*
X124352380Y-107966666D02*
X123876190Y-108300000D01*
X124352380Y-108538095D02*
X123352380Y-108538095D01*
X123352380Y-108157142D01*
X123400000Y-108061904D01*
X123447619Y-108014285D01*
X123542857Y-107966666D01*
X123685714Y-107966666D01*
X123780952Y-108014285D01*
X123828571Y-108061904D01*
X123876190Y-108157142D01*
X123876190Y-108538095D01*
X124352380Y-107490476D02*
X124352380Y-107300000D01*
X124304761Y-107204761D01*
X124257142Y-107157142D01*
X124114285Y-107061904D01*
X123923809Y-107014285D01*
X123542857Y-107014285D01*
X123447619Y-107061904D01*
X123400000Y-107109523D01*
X123352380Y-107204761D01*
X123352380Y-107395238D01*
X123400000Y-107490476D01*
X123447619Y-107538095D01*
X123542857Y-107585714D01*
X123780952Y-107585714D01*
X123876190Y-107538095D01*
X123923809Y-107490476D01*
X123971428Y-107395238D01*
X123971428Y-107204761D01*
X123923809Y-107109523D01*
X123876190Y-107061904D01*
X123780952Y-107014285D01*
G04 #@! TO.C,U4*
X121738095Y-101552380D02*
X121738095Y-102361904D01*
X121785714Y-102457142D01*
X121833333Y-102504761D01*
X121928571Y-102552380D01*
X122119047Y-102552380D01*
X122214285Y-102504761D01*
X122261904Y-102457142D01*
X122309523Y-102361904D01*
X122309523Y-101552380D01*
X123214285Y-101885714D02*
X123214285Y-102552380D01*
X122976190Y-101504761D02*
X122738095Y-102219047D01*
X123357142Y-102219047D01*
X120000000Y-103552380D02*
X120000000Y-103790476D01*
X119761904Y-103695238D02*
X120000000Y-103790476D01*
X120238095Y-103695238D01*
X119857142Y-103980952D02*
X120000000Y-103790476D01*
X120142857Y-103980952D01*
G04 #@! TO.C,Y1*
X106223809Y-129376190D02*
X106223809Y-129852380D01*
X105890476Y-128852380D02*
X106223809Y-129376190D01*
X106557142Y-128852380D01*
X107414285Y-129852380D02*
X106842857Y-129852380D01*
X107128571Y-129852380D02*
X107128571Y-128852380D01*
X107033333Y-128995238D01*
X106938095Y-129090476D01*
X106842857Y-129138095D01*
G04 #@! TD*
M02*
