M48
; DRILL file {KiCad (5.1.8)-1} date 04/18/21 13:12:30
; FORMAT={3:3/ absolute / metric / suppress leading zeros}
; #@! TF.CreationDate,2021-04-18T13:12:30+09:00
; #@! TF.GenerationSoftware,Kicad,Pcbnew,(5.1.8)-1
FMAT,2
METRIC,TZ
T1C0.254
T2C0.300
T3C0.500
T4C0.750
T5C1.000
T6C1.000
T7C1.700
%
G90
G05
T1
X122500Y-104206
X122500Y-104994
T2
X101300Y-127200
X102800Y-118000
X103100Y-113100
X103500Y-128100
X103600Y-118000
X103800Y-115000
X105700Y-113100
X105800Y-129100
X107900Y-112800
X108882Y-117734
X109000Y-127200
X109100Y-125300
X110600Y-112000
X110900Y-127200
X111500Y-123900
X114019Y-123470
X118200Y-117500
X118212Y-118337
X118800Y-121800
X120444Y-102870
X120900Y-112200
X122400Y-112200
T3
X106900Y-109500
X113200Y-121100
X118500Y-123500
X127100Y-107900
X128200Y-105300
X128300Y-103900
X136400Y-111400
X136400Y-121500
T4
X115600Y-128500
X117600Y-128500
X119600Y-128500
X121600Y-128500
T5
X130600Y-103400
X130600Y-105900
T6
X129200Y-127100
X135200Y-127100
X129200Y-116800
X135200Y-116800
T7
X106050Y-105600
X113050Y-105600
T0
M30
